<?xml version="1.0" standalone="no"?>
<!DOCTYPE svg PUBLIC "-//W3C//DTD SVG 20010904//EN"
 "http://www.w3.org/TR/2001/REC-SVG-20010904/DTD/svg10.dtd">
<svg version="1.0" xmlns="http://www.w3.org/2000/svg"
 width="663.000000pt" height="449.000000pt" viewBox="0 0 663.000000 449.000000"
 preserveAspectRatio="xMidYMid meet">

<g transform="translate(0.000000,449.000000) scale(0.100000,-0.100000)"
fill="#000000" stroke="none">
<path d="M2583 3688 c-6 -7 -91 -215 -189 -462 -116 -290 -188 -459 -205 -477
-14 -15 -44 -32 -68 -39 -35 -9 -42 -15 -39 -33 3 -21 7 -22 166 -25 l162 -2
0 23 c0 19 -7 25 -42 33 -30 6 -47 17 -57 36 -14 24 -13 34 7 102 12 41 33
100 46 131 l25 55 182 -2 183 -3 37 -95 c68 -174 63 -214 -33 -226 -43 -6 -49
-9 -46 -28 3 -21 8 -21 221 -24 l217 -2 0 24 c0 20 -7 25 -45 35 -77 19 -84
32 -314 609 -138 344 -156 382 -176 382 -12 0 -27 -6 -32 -12z m71 -393 c36
-99 66 -184 66 -188 0 -4 -67 -7 -150 -7 -82 0 -150 4 -150 8 0 4 30 82 66
172 36 91 70 176 75 189 6 14 13 20 18 15 4 -5 38 -90 75 -189z"/>
<path d="M3833 3482 c-10 -9 -30 -33 -45 -52 l-28 -35 0 28 c0 31 -31 67 -58
67 -23 0 -59 -26 -73 -52 -11 -20 -9 -21 24 -15 20 3 39 1 46 -6 17 -17 13
-82 -8 -108 -10 -13 -20 -40 -23 -59 -7 -51 -930 -1416 -964 -1424 -13 -4 -31
-20 -39 -36 -15 -29 -60 -60 -88 -60 -8 0 -26 9 -40 20 -14 11 -28 20 -31 20
-13 0 -5 -70 10 -84 18 -18 33 -20 68 -6 25 9 37 -2 16 -15 -19 -11 -51 -86
-47 -108 3 -20 10 -15 60 36 l57 59 0 -36 c0 -59 62 -77 105 -30 34 37 31 43
-14 37 -34 -5 -40 -2 -46 17 -10 32 2 85 26 106 13 12 19 28 17 46 -2 22 66
129 347 545 605 898 594 881 617 885 12 2 29 17 38 33 30 55 94 71 131 34 17
-17 23 -19 30 -8 29 45 -10 95 -66 86 -19 -3 -35 -4 -35 -1 0 2 11 21 24 42
34 51 43 92 22 92 -9 0 -24 -8 -33 -18z"/>
<path d="M3434 2687 c-2 -7 -3 -65 -2 -128 3 -107 4 -114 24 -117 18 -3 22 3
28 45 15 115 73 152 239 153 60 0 117 -5 128 -10 18 -10 19 -25 19 -404 0
-216 -3 -407 -6 -425 -9 -42 -49 -79 -93 -86 -79 -13 -82 -15 -79 -38 l3 -22
250 0 250 0 3 22 c3 17 -3 24 -25 28 -84 17 -105 27 -123 58 -19 30 -20 53
-20 444 0 397 1 413 19 423 26 14 209 13 252 -1 65 -22 93 -62 114 -162 4 -22
11 -28 28 -25 22 3 22 5 18 123 -2 66 -5 123 -8 128 -2 4 -231 7 -509 7 -407
0 -506 -3 -510 -13z"/>
<path d="M3498 1365 c-58 -11 -70 -18 -126 -69 -59 -54 -77 -100 -77 -196 0
-92 13 -129 64 -183 49 -54 97 -71 196 -72 75 0 97 4 132 23 52 27 63 28 63 2
0 -11 7 -20 15 -20 12 0 15 16 15 85 0 66 -3 85 -14 85 -8 0 -17 -11 -20 -24
-8 -32 -52 -83 -87 -101 -42 -22 -135 -19 -175 5 -50 31 -77 96 -78 189 -2
137 38 216 121 241 77 23 159 -14 189 -87 26 -60 41 -39 46 65 3 44 0 52 -14
52 -10 0 -18 -7 -18 -15 0 -19 1 -19 -51 4 -59 25 -113 30 -181 16z"/>
<path d="M1923 1362 c-73 -1 -133 -6 -133 -10 0 -4 14 -13 30 -19 l30 -11 0
-210 c0 -219 -1 -225 -44 -233 -11 -2 -21 -10 -24 -17 -7 -22 360 -12 410 11
97 44 148 121 148 227 0 78 -22 130 -76 182 -73 69 -138 85 -341 80z m207 -54
c83 -42 123 -147 101 -263 -19 -105 -76 -155 -175 -155 -107 0 -106 -3 -106
229 0 109 3 201 7 204 3 4 34 7 68 7 43 0 74 -6 105 -22z"/>
<path d="M2603 1362 c-69 -3 -79 -12 -34 -28 25 -10 29 -18 35 -65 3 -30 6
-111 5 -181 -1 -114 1 -130 21 -167 34 -59 75 -76 185 -76 72 0 97 4 124 20
75 44 90 92 91 282 0 153 7 181 50 189 52 11 33 22 -42 26 -134 6 -186 -7
-116 -27 50 -15 58 -42 58 -195 0 -157 -9 -199 -51 -234 -26 -22 -41 -26 -93
-26 -119 0 -136 33 -136 260 0 147 2 162 20 180 11 11 29 20 40 20 11 0 20 4
20 9 0 11 -89 17 -177 13z"/>
<path d="M4155 1347 c-27 -13 -69 -45 -92 -70 -166 -181 -14 -455 241 -435
235 19 345 278 188 441 -59 61 -104 80 -202 84 -74 4 -92 1 -135 -20z m191
-26 c76 -35 109 -110 102 -237 -7 -139 -60 -204 -169 -204 -109 0 -170 76
-171 213 0 86 14 137 50 186 45 60 114 75 188 42z"/>
<path d="M1130 1353 c0 -5 14 -16 30 -25 l30 -17 0 -199 c0 -207 -4 -227 -44
-234 -11 -1 -21 -9 -24 -15 -3 -10 46 -13 221 -13 l225 0 6 31 c9 46 7 109 -3
109 -5 0 -14 -13 -21 -29 -6 -16 -23 -40 -36 -52 -22 -21 -35 -24 -109 -24
-113 0 -120 7 -120 123 l0 87 43 3 c49 4 87 -15 97 -48 14 -44 25 -16 25 65 0
47 -3 85 -7 85 -5 0 -15 -13 -24 -29 -13 -22 -27 -31 -58 -36 -77 -13 -82 -6
-79 98 l3 92 85 3 c99 3 129 -9 149 -56 22 -48 31 -39 31 28 l0 60 -210 0
c-115 0 -210 -3 -210 -7z"/>
<path d="M4760 1352 c0 -4 13 -13 30 -19 46 -17 52 -47 48 -244 -3 -185 -8
-205 -50 -211 -12 -2 -23 -9 -26 -15 -3 -10 20 -13 92 -13 96 0 122 11 71 30
-14 5 -30 21 -35 35 -12 31 -13 345 -2 345 5 0 75 -95 156 -211 l148 -210 42
3 41 3 5 235 5 235 33 17 c19 9 36 19 39 22 4 3 -39 6 -95 6 -61 0 -102 -4
-102 -10 0 -5 7 -10 15 -10 8 0 24 -9 35 -20 18 -18 20 -33 20 -180 0 -88 -3
-160 -7 -160 -5 0 -66 85 -138 190 l-130 189 -97 1 c-54 0 -98 -4 -98 -8z"/>
</g>
</svg>
