<?xml version="1.0" standalone="no"?>
<!DOCTYPE svg PUBLIC "-//W3C//DTD SVG 20010904//EN"
 "http://www.w3.org/TR/2001/REC-SVG-20010904/DTD/svg10.dtd">
<svg version="1.0" xmlns="http://www.w3.org/2000/svg"
 width="914.000000pt" height="302.000000pt" viewBox="0 0 914.000000 302.000000"
 preserveAspectRatio="xMidYMid meet">

<g transform="translate(0.000000,302.000000) scale(0.100000,-0.100000)"
fill="#000000" stroke="none">
<path d="M631 2848 c-143 -373 -387 -960 -405 -977 -13 -13 -43 -28 -67 -35
-36 -11 -45 -18 -47 -40 l-3 -26 175 0 176 0 0 24 c0 20 -6 25 -40 31 -52 9
-70 28 -70 75 0 37 47 185 76 243 l15 27 188 0 188 0 47 -126 c25 -69 46 -138
46 -154 0 -34 -31 -60 -71 -60 -43 0 -59 -10 -59 -36 l0 -24 231 0 230 0 -3
27 c-3 24 -9 29 -41 34 -82 13 -101 49 -332 622 -167 414 -168 417 -197 417
-20 0 -31 -6 -37 -22z m83 -408 l73 -195 -155 -3 c-85 -1 -157 -1 -159 2 -4 4
127 346 150 391 6 11 12 15 14 10 2 -6 36 -98 77 -205z"/>
<path d="M1926 2608 c-44 -51 -46 -52 -46 -25 0 31 -31 67 -59 67 -23 0 -81
-46 -81 -65 0 -10 7 -12 30 -5 23 7 34 5 46 -8 22 -21 13 -100 -12 -119 -12
-9 -19 -26 -19 -48 0 -30 -79 -151 -495 -769 -424 -629 -499 -734 -525 -742
-20 -6 -31 -16 -33 -32 -8 -53 -116 -83 -147 -39 -13 19 -17 20 -25 7 -33 -52
13 -112 70 -92 16 6 30 9 30 7 0 -1 -14 -29 -30 -60 -34 -64 -37 -85 -14 -85
17 0 56 36 91 85 l22 30 1 -33 c0 -37 30 -72 61 -72 21 0 79 50 79 69 0 5 -19
9 -42 8 l-43 -2 -3 44 c-3 34 2 52 19 75 12 16 23 44 24 60 1 23 127 218 494
761 413 612 497 731 521 738 19 5 31 17 38 36 18 52 105 79 143 45 38 -34 56
29 19 66 -22 22 -42 25 -71 10 -25 -14 -24 -2 5 51 13 24 27 54 31 67 12 42
-30 25 -79 -30z"/>
<path d="M6431 1929 c-71 -12 -164 -63 -207 -113 -19 -22 -47 -65 -62 -96 -24
-49 -27 -66 -27 -160 0 -99 2 -110 33 -172 56 -115 152 -176 290 -185 90 -6
173 9 237 43 58 30 63 30 67 -3 2 -20 9 -29 26 -31 l23 -3 -3 123 c-3 103 -6
123 -19 126 -11 2 -21 -12 -34 -44 -39 -102 -115 -154 -225 -154 -79 0 -133
23 -177 73 -40 46 -53 89 -60 196 -9 136 22 238 91 299 55 48 123 62 201 41
49 -14 127 -90 141 -139 5 -19 17 -36 26 -38 18 -3 26 41 31 168 2 54 -1 65
-15 68 -12 2 -21 -5 -28 -22 -5 -14 -11 -26 -14 -26 -2 0 -28 11 -57 24 -63
28 -160 39 -238 25z"/>
<path d="M7422 1929 c-120 -20 -234 -106 -289 -216 -24 -51 -28 -69 -28 -148
0 -76 4 -99 26 -145 68 -145 225 -229 401 -217 146 10 278 97 334 220 39 86
40 195 2 279 -54 118 -172 207 -303 228 -67 11 -69 11 -143 -1z m143 -60 c59
-17 129 -90 149 -159 35 -117 30 -245 -14 -330 -84 -162 -320 -162 -403 1 -35
68 -47 190 -28 280 34 161 156 247 296 208z"/>
<path d="M3140 1910 c0 -15 9 -22 30 -27 17 -3 35 -14 40 -24 6 -10 10 -137
10 -298 0 -278 0 -280 -22 -295 -12 -9 -33 -16 -45 -16 -16 0 -23 -6 -23 -20
0 -20 7 -20 314 -20 l314 0 7 96 c9 125 -12 151 -44 53 -6 -20 -24 -48 -40
-63 -57 -54 -247 -61 -297 -11 -23 23 -24 31 -24 151 l0 126 69 -4 c78 -4 106
-21 119 -72 5 -17 16 -32 25 -34 16 -3 17 8 15 130 -2 109 -6 133 -18 133 -8
0 -17 -14 -21 -35 -11 -54 -39 -70 -120 -70 l-70 0 3 133 3 132 79 3 c147 5
228 -29 242 -105 4 -23 12 -33 25 -33 17 0 19 8 19 79 0 44 -3 86 -6 95 -5 14
-41 16 -295 16 -284 0 -289 0 -289 -20z"/>
<path d="M4060 1911 c0 -13 9 -21 30 -26 17 -4 35 -15 40 -25 6 -11 10 -131
10 -292 0 -302 -1 -304 -60 -317 -21 -4 -36 -14 -38 -24 -3 -16 15 -17 225
-17 175 0 243 4 288 16 106 27 192 91 237 177 20 36 23 57 23 152 0 103 -2
113 -29 163 -37 67 -112 137 -179 167 -75 35 -159 45 -364 45 -174 0 -183 -1
-183 -19z m465 -58 c94 -49 136 -130 143 -274 6 -127 -13 -194 -71 -253 -52
-52 -110 -70 -203 -64 -58 4 -70 8 -90 32 -24 27 -24 27 -24 300 0 150 3 276
8 280 4 5 50 6 102 4 71 -3 105 -9 135 -25z"/>
<path d="M5097 1923 c-16 -15 -5 -31 27 -37 24 -5 37 -14 45 -34 6 -15 12
-123 13 -252 3 -189 6 -231 21 -265 40 -90 105 -126 242 -133 156 -8 251 32
296 125 22 45 24 63 29 274 6 255 11 273 75 285 26 5 35 11 33 23 -3 14 -22
16 -148 16 -121 0 -145 -2 -148 -15 -1 -10 13 -20 45 -30 69 -22 75 -45 71
-295 -3 -191 -4 -202 -27 -242 -33 -57 -86 -83 -170 -83 -83 0 -132 25 -160
83 -19 40 -21 60 -21 271 l0 227 25 24 c13 14 36 25 50 25 18 0 25 5 25 20 0
19 -7 20 -158 20 -87 0 -162 -3 -165 -7z"/>
<path d="M8177 1923 c-15 -15 -5 -32 22 -38 16 -3 37 -15 47 -27 18 -19 19
-41 19 -295 l0 -275 -24 -19 c-13 -10 -36 -19 -52 -19 -22 0 -29 -5 -29 -20 0
-20 5 -20 138 -18 112 2 137 6 137 18 0 8 -14 17 -35 21 -59 12 -60 18 -60
288 l1 246 20 -25 c12 -14 89 -122 172 -240 83 -118 168 -239 189 -267 l39
-53 59 0 60 0 0 304 c0 196 4 314 11 335 9 26 19 34 55 43 31 9 44 17 42 28
-3 12 -26 15 -136 18 -125 2 -132 2 -132 -17 0 -13 9 -21 30 -26 57 -13 61
-28 58 -276 l-3 -224 -174 250 c-96 138 -183 260 -194 273 -19 20 -29 22 -137
22 -64 0 -120 -3 -123 -7z"/>
<path d="M1544 1807 c-2 -7 -3 -69 -2 -138 3 -115 4 -124 22 -124 16 0 22 11
31 56 23 118 77 151 245 152 130 1 147 -4 155 -47 12 -61 0 -829 -13 -858 -15
-37 -62 -64 -123 -72 -44 -6 -49 -9 -49 -32 l0 -24 268 2 c264 3 267 3 270 24
3 19 -4 23 -59 33 -72 12 -104 37 -119 90 -6 21 -10 206 -10 448 l0 412 23 13
c14 8 60 12 127 12 165 -1 223 -36 252 -154 13 -53 30 -70 53 -52 12 8 3 240
-9 260 -11 18 -1055 17 -1062 -1z"/>
</g>
</svg>
